<svg xmlns="http://www.w3.org/2000/svg" viewBox="0 0 7.17 18.8"><defs><style>.cls-1{fill:#262626;}</style></defs><g id="Layer_2" data-name="Layer 2"><g id="Layer_1-2" data-name="Layer 1"><path class="cls-1" d="M3.44,2.08S3.55,2,3.56,2s-.19.06,0,0l.13,0c.2-.06-.06,0-.06,0s.25,0,.28,0-.23,0-.05,0L4,2.06c.23.07-.12-.08.1,0l.25.16c.1.06-.07,0-.06,0l.11.1a.94.94,0,0,0,.1.1c.16.16-.1-.16,0,.05l.18.28c0,.06.15.34.07.14A5.17,5.17,0,0,1,5,3.5c.06.22.1.44.14.66l.06.34s0-.19,0,0c0,0,0,.27,0,.14s-.09.08,0,0,.15-.18.06-.1-.13.13,0,0,0,0-.06,0a1.71,1.71,0,0,1-.23.13l-.16.08s-.28.13-.09.05a5.73,5.73,0,0,1-.7.23l-.31.07c-.15,0,.16,0,0,0H3.45a2.17,2.17,0,0,1-.36,0h0L3,5.14a1.8,1.8,0,0,0-.28-.09s.22.11,0,0L2.55,5s-.28-.18-.17-.1-.11-.11-.14-.14l-.09-.1c-.08-.08.05.05,0,.06A2.28,2.28,0,0,0,2,4.4s.06.22,0,0,0-.11,0-.16,0,.19,0,0,0-.17,0-.18S2,4.37,2,4.21s0-.12,0-.17-.09.15,0,0a1.4,1.4,0,0,0,.1-.16c.1-.17,0,0,0,0l.15-.16s-.2.13,0,0l.15-.08c.1-.07-.09,0-.09,0l.2,0s-.23.1-.06,0h.07c-.15,0-.17,0-.06,0a1,1,0,0,0,1.23-.7A1,1,0,0,0,3,1.83,2.47,2.47,0,0,0,0,4.26,3.1,3.1,0,0,0,2.49,7.08,4.55,4.55,0,0,0,4.69,7,4.71,4.71,0,0,0,6.64,6a2.48,2.48,0,0,0,.41-2.38,6.15,6.15,0,0,0-.62-1.87,3,3,0,0,0-4-1.37,1,1,0,0,0-.36,1.37,1,1,0,0,0,1.37.36Z"/><path class="cls-1" d="M2.05,11.25a4.91,4.91,0,0,0-.28,6.47,2.83,2.83,0,0,0,1.77,1.06A2.42,2.42,0,0,0,5.6,17.9,4.62,4.62,0,0,0,6.93,14a3.1,3.1,0,0,0-1-1.79,2.83,2.83,0,0,0-2.32-.66,1,1,0,0,0-.7,1.23,1,1,0,0,0,1.23.7c-.26,0,.16,0,0,0s0,0,.06,0l.11,0c.06,0,.15.08,0,0l.11.06.13.08c.12.06-.1-.1,0,0l.2.2c.13.13,0,0,0,0L4.8,14l.14.25c-.1-.19,0,.09,0,.16s0,0,0,0a1.1,1.1,0,0,1,0,.18,2.81,2.81,0,0,1,0,.29c0,.19,0,.06,0,0s0,.12,0,.19-.07.24-.11.36l0,.06c0-.11,0,.07,0,.1l-.16.29-.18.29-.09.12c.08-.11,0,0-.05.06l-.22.24-.1.09c-.09.11.11-.06,0,0l-.12.07c-.17.11,0,0,0,0s-.16,0,0,0-.15,0,0,0l-.18-.05s.11.07,0,0-.27-.19-.15-.09l-.23-.23-.11-.12c-.09-.1.09.13,0,0a3.64,3.64,0,0,1-.28-.47s-.09-.18,0-.06,0,0,0,0-.07-.2-.1-.3a2.81,2.81,0,0,1-.08-.31c0-.09,0-.22,0,0a4.5,4.5,0,0,1,0-.64c0-.1,0-.21,0-.31,0,.22,0,0,0-.13a4.14,4.14,0,0,1,.18-.6c-.07.22,0-.06.06-.12A1.92,1.92,0,0,1,3.15,13l.06-.1c.1-.15-.07.07,0,0l.24-.26a1,1,0,0,0-1.41-1.42Z"/></g></g></svg>